<svg width="677" height="679" viewBox="0 0 677 679" fill="none" xmlns="http://www.w3.org/2000/svg">
<path d="M338.5 0L368.165 19.365L400.883 5.78064L426.484 30.2668L461.142 22.9257L481.808 51.6992L517.224 50.8513L532.251 82.9323L567.22 88.6065L576.096 122.902L609.427 134.906L611.85 170.249L642.408 188.172L638.296 223.358L665.04 246.591L654.532 280.423L676.552 308.175L660.006 339.5L676.552 370.825L654.532 398.577L665.04 432.409L638.296 455.642L642.408 490.828L611.85 508.751L609.427 544.094L576.096 556.098L567.22 590.394L532.251 596.068L517.224 628.149L481.808 627.301L461.142 656.074L426.484 648.733L400.883 673.219L368.165 659.635L338.5 679L308.835 659.635L276.117 673.219L250.516 648.733L215.858 656.074L195.192 627.301L159.776 628.149L144.749 596.068L109.78 590.394L100.904 556.098L67.5732 544.094L65.1497 508.751L34.5921 490.828L38.7041 455.642L11.9602 432.409L22.4677 398.577L0.448242 370.825L16.9935 339.5L0.448242 308.175L22.4677 280.423L11.9602 246.591L38.7041 223.358L34.5921 188.172L65.1497 170.249L67.5732 134.906L100.904 122.902L109.78 88.6065L144.749 82.9323L159.776 50.8513L195.192 51.6992L215.858 22.9257L250.516 30.2668L276.117 5.78064L308.835 19.365L338.5 0Z" fill="#1A8166"/>
</svg>
